# xmcd
#
# Track frame offsets: 
#        150
#        12816
#        25157
#        37836
#        52289
#        63723
#        79847
#        93569
#        108131
#        118607
#        130277
#        141052
#
# Disc length: 2107 seconds
#
# Revision: 0
# Processed by: cddbd v1.5.2PL0 Copyright (c) Steve Scherf et al.
# Submitted via: ExactAudioCopy v0.99pb4
#
DISCID=9e08390c
DTITLE=Lynn Anderson - Rose Garden
DYEAR=2000
DGENRE=Country
TTITLE0=Top Of The World
TTITLE1=Stand By Your Man
TTITLE2=Rose Garden
TTITLE3=Gone At Last
TTITLE4=Listen To A Country Song
TTITLE5=The Devil Went Down To Georgia
TTITLE6=Two Doors Down
TTITLE7=Faithless Love
TTITLE8=Heaven's Just A Sin Away
TTITLE9=Rodeo Cowboy
TTITLE10=Someday Soon
TTITLE11=Blue Bayou
EXTD=
EXTT0=
EXTT1=
EXTT2=
EXTT3=
EXTT4=
EXTT5=
EXTT6=
EXTT7=
EXTT8=
EXTT9=
EXTT10=
EXTT11=
PLAYORDER=
